<?xml version="1.0" encoding="UTF-8" standalone="no"?>
<!DOCTYPE svg PUBLIC "-//W3C//DTD SVG 1.1//EN"
 "http://www.w3.org/Graphics/SVG/1.1/DTD/svg11.dtd">
<!-- Generated by graphviz version 2.43.0 (0)
 -->
<!-- Title: G Pages: 1 -->
<svg width="873pt" height="135pt"
 viewBox="0.00 0.00 873.00 135.00" xmlns="http://www.w3.org/2000/svg" xmlns:xlink="http://www.w3.org/1999/xlink">
<g id="graph0" class="graph" transform="scale(1 1) rotate(0) translate(4 131)">
<title>G</title>
<polygon fill="white" stroke="transparent" points="-4,4 -4,-131 869,-131 869,4 -4,4"/>
<g id="clust1" class="cluster">
<title>cluster_recovery</title>
<polygon fill="none" stroke="green" points="8,-8 8,-83 312,-83 312,-8 8,-8"/>
<text text-anchor="middle" x="160" y="-67.8" font-family="Times,serif" font-size="14.00">Recovery Options</text>
</g>
<g id="clust2" class="cluster">
<title>cluster_prevention</title>
<polygon fill="none" stroke="blue" points="320,-8 320,-83 857,-83 857,-8 320,-8"/>
<text text-anchor="middle" x="588.5" y="-67.8" font-family="Times,serif" font-size="14.00">Prevention Steps</text>
</g>
<!-- collision -->
<g id="node1" class="node">
<title>collision</title>
<polygon fill="lightpink" stroke="black" points="384,-127 286,-127 286,-91 390,-91 390,-121 384,-127"/>
<polyline fill="none" stroke="black" points="384,-127 384,-121 "/>
<polyline fill="none" stroke="black" points="390,-121 384,-121 "/>
<text text-anchor="middle" x="338" y="-105.3" font-family="Arial" font-size="14.00">Collision Logic</text>
</g>
<!-- r1 -->
<g id="node2" class="node">
<title>r1</title>
<polygon fill="white" stroke="black" points="298,-52 238,-52 238,-16 304,-16 304,-46 298,-52"/>
<polyline fill="none" stroke="black" points="298,-52 298,-46 "/>
<polyline fill="none" stroke="black" points="304,-46 298,-46 "/>
<text text-anchor="middle" x="271" y="-30.3" font-family="Arial" font-size="14.00">Esc Key</text>
</g>
<!-- collision&#45;&gt;r1 -->
<g id="edge1" class="edge">
<title>collision&#45;&gt;r1</title>
<path fill="none" stroke="black" d="M322.12,-90.7C313.61,-81.43 302.98,-69.84 293.62,-59.64"/>
<polygon fill="black" stroke="black" points="296.1,-57.18 286.76,-52.18 290.95,-61.91 296.1,-57.18"/>
</g>
<!-- r2 -->
<g id="node3" class="node">
<title>r2</title>
<polygon fill="white" stroke="black" points="214,-52 138,-52 138,-16 220,-16 220,-46 214,-52"/>
<polyline fill="none" stroke="black" points="214,-52 214,-46 "/>
<polyline fill="none" stroke="black" points="220,-46 214,-46 "/>
<text text-anchor="middle" x="179" y="-30.3" font-family="Arial" font-size="14.00">Right&#45;Click</text>
</g>
<!-- collision&#45;&gt;r2 -->
<g id="edge2" class="edge">
<title>collision&#45;&gt;r2</title>
<path fill="none" stroke="black" d="M285.76,-101.91C267.06,-98.23 246.34,-92.36 229,-83 218.03,-77.07 207.74,-68.08 199.39,-59.47"/>
<polygon fill="black" stroke="black" points="201.93,-57.06 192.58,-52.09 196.79,-61.81 201.93,-57.06"/>
</g>
<!-- r3 -->
<g id="node4" class="node">
<title>r3</title>
<polygon fill="white" stroke="black" points="114,-52 16,-52 16,-16 120,-16 120,-46 114,-52"/>
<polyline fill="none" stroke="black" points="114,-52 114,-46 "/>
<polyline fill="none" stroke="black" points="120,-46 114,-46 "/>
<text text-anchor="middle" x="68" y="-30.3" font-family="Arial" font-size="14.00">killall &#45;9 import</text>
</g>
<!-- collision&#45;&gt;r3 -->
<g id="edge3" class="edge">
<title>collision&#45;&gt;r3</title>
<path fill="none" stroke="black" d="M285.7,-104.98C233.25,-101.38 156.43,-94.37 129,-83 115.51,-77.41 102.51,-67.95 92,-58.9"/>
<polygon fill="black" stroke="black" points="94.26,-56.22 84.48,-52.13 89.57,-61.42 94.26,-56.22"/>
</g>
<!-- p1 -->
<g id="node5" class="node">
<title>p1</title>
<polygon fill="white" stroke="black" points="843.5,-52 672.5,-52 672.5,-16 849.5,-16 849.5,-46 843.5,-52"/>
<polyline fill="none" stroke="black" points="843.5,-52 843.5,-46 "/>
<polyline fill="none" stroke="black" points="849.5,-46 843.5,-46 "/>
<text text-anchor="middle" x="761" y="-30.3" font-family="Arial" font-size="14.00">Add #!/usr/bin/env python3</text>
</g>
<!-- collision&#45;&gt;p1 -->
<g id="edge4" class="edge">
<title>collision&#45;&gt;p1</title>
<path fill="none" stroke="black" d="M390.02,-106.38C468.43,-103.54 613.04,-96.62 663,-83 684.32,-77.19 706.57,-66.7 724.46,-57.01"/>
<polygon fill="black" stroke="black" points="726.35,-59.97 733.39,-52.05 722.95,-53.85 726.35,-59.97"/>
</g>
<!-- p2 -->
<g id="node6" class="node">
<title>p2</title>
<polygon fill="white" stroke="black" points="648,-52 502,-52 502,-16 654,-16 654,-46 648,-52"/>
<polyline fill="none" stroke="black" points="648,-52 648,-46 "/>
<polyline fill="none" stroke="black" points="654,-46 648,-46 "/>
<text text-anchor="middle" x="578" y="-30.3" font-family="Arial" font-size="14.00">Use &#39;python3 script.py&#39;</text>
</g>
<!-- collision&#45;&gt;p2 -->
<g id="edge5" class="edge">
<title>collision&#45;&gt;p2</title>
<path fill="none" stroke="black" d="M390.09,-104.23C420.72,-100.88 459.82,-94.63 493,-83 510.92,-76.72 529.43,-66.75 544.58,-57.52"/>
<polygon fill="black" stroke="black" points="546.46,-60.47 553.09,-52.2 542.75,-54.53 546.46,-60.47"/>
</g>
<!-- p3 -->
<g id="node7" class="node">
<title>p3</title>
<polygon fill="white" stroke="black" points="478,-52 328,-52 328,-16 484,-16 484,-46 478,-52"/>
<polyline fill="none" stroke="black" points="478,-52 478,-46 "/>
<polyline fill="none" stroke="black" points="484,-46 478,-46 "/>
<text text-anchor="middle" x="406" y="-30.3" font-family="Arial" font-size="14.00">Alias &#39;import&#39; in .bashrc</text>
</g>
<!-- collision&#45;&gt;p3 -->
<g id="edge6" class="edge">
<title>collision&#45;&gt;p3</title>
<path fill="none" stroke="black" d="M354.12,-90.7C362.75,-81.43 373.54,-69.84 383.04,-59.64"/>
<polygon fill="black" stroke="black" points="385.75,-61.88 390,-52.18 380.62,-57.11 385.75,-61.88"/>
</g>
</g>
</svg>
